<svg width="155" height="16" viewBox="0 0 155 16" fill="none" xmlns="http://www.w3.org/2000/svg">
<g clip-path="url(#clip0_52_1579)">
<path d="M54.6602 7.41965C54.6602 3.37925 57.9733 0 61.8458 0C63.782 0 65.5748 0.837465 66.8944 2.18916L65.8187 3.32048C64.8003 2.21855 63.3948 1.49862 61.8601 1.49862C58.8338 1.49862 56.2809 4.21671 56.2809 7.41965C56.2809 10.6373 58.8338 13.3554 61.8601 13.3554C63.3948 13.3554 64.8003 12.6501 65.8187 11.5335L66.8944 12.6648C65.5892 14.0018 63.7964 14.854 61.8458 14.854C57.9733 14.8687 54.6602 11.4601 54.6602 7.41965Z" fill="black"/>
<path d="M73.9231 16V13.0615C70.7677 12.6648 68.3008 9.90266 68.3008 6.5528C68.3008 2.93848 71.1693 0 74.6976 0H77.5087C81.037 0 83.9055 2.93848 83.9055 6.5528C83.9055 11.9155 78.3262 14.1928 74.9988 15.5592L73.9231 16ZM74.6976 1.58678C72.0298 1.58678 69.8498 3.82002 69.8498 6.5528C69.8498 9.28558 72.0155 11.5041 74.6832 11.5041H75.4577V13.6345C78.9573 12.1212 82.3278 10.1377 82.3278 6.5528C82.3278 3.82002 80.1621 1.60147 77.4944 1.60147H74.6976V1.58678Z" fill="black"/>
<path d="M86.8594 0.25H88.4514L97.143 11.9451V0.25H98.735V14.6191H97.143L88.4514 2.92401V14.6191H86.8594V0.25Z" fill="black"/>
<path d="M102.578 0.25H104.17L112.862 11.9451V0.25H114.454V14.6191H112.862L104.17 2.92401V14.6191H102.578V0.25Z" fill="black"/>
<path d="M119.605 1.7927V6.52364H127.221V8.06634H119.605V13.0618H128.053V14.6045H117.984V0.25H128.053V1.7927H119.605Z" fill="black"/>
<path d="M130.23 7.41965C130.23 3.39394 133.544 0 137.416 0C139.352 0 141.145 0.837465 142.465 2.18916L141.389 3.32048C140.371 2.21855 138.965 1.49862 137.43 1.49862C134.404 1.49862 131.851 4.21671 131.851 7.41965C131.851 10.6373 134.404 13.3554 137.43 13.3554C138.965 13.3554 140.371 12.6501 141.389 11.5335L142.465 12.6648C141.159 14.0018 139.367 14.854 137.416 14.854C133.544 14.8687 130.23 11.4601 130.23 7.41965Z" fill="black"/>
<path d="M148.691 1.7927H143.973V0.25H154.988V1.7927H150.269V14.6045H148.677V1.7927H148.691Z" fill="black"/>
<path d="M0 12.4885L1.73545 10.3728C3.06931 11.5482 4.57528 12.2534 6.35375 12.2534C7.85972 12.2534 8.63422 11.5482 8.63422 10.6373C8.63422 9.60882 7.81669 9.30028 5.67965 8.80073C2.71074 8.11019 0.61673 7.25803 0.61673 4.48118C0.61673 1.82185 2.73943 0 5.79439 0C8.07486 0 9.85334 0.734619 11.2876 1.98347L9.70991 4.20202C8.46211 3.17355 7.05654 2.61524 5.70834 2.61524C4.41751 2.61524 3.64301 3.30578 3.64301 4.15794C3.64301 5.2011 4.47488 5.53903 6.6406 6.03857C9.66688 6.72911 11.6605 7.65473 11.6605 10.2994C11.6605 13.0321 9.6382 14.854 6.21033 14.854C3.80078 14.8687 1.63505 14.0312 0 12.4885Z" fill="#6200EE"/>
<path d="M17.4695 3.02686H13.1094V0.25H24.8703V3.02686H20.4958V14.6045H17.4695V3.02686Z" fill="#6200EE"/>
<path d="M36.2741 0.0588379L24.3984 8.38942L30.494 9.37381L33.9649 14.6043L36.2741 0.0588379Z" fill="#6200EE"/>
<path d="M49.5831 14.6191L46.3848 9.96166H44.1617V14.6191H41.1641V0.25H47.4748C50.5154 0.25 52.7672 2.26286 52.7672 5.09848C52.7672 7.22888 51.505 8.90381 49.5831 9.59435L53.0397 14.6191H49.5831ZM44.1473 7.12603H47.1306C48.6222 7.12603 49.6405 6.33264 49.6405 5.09848C49.6405 3.86432 48.6222 3.07094 47.1306 3.07094H44.1473V7.12603Z" fill="#6200EE"/>
</g>
<defs>
<clipPath id="clip0_52_1579">
<rect width="155" height="16" fill="white"/>
</clipPath>
</defs>
</svg>
