<svg width="190" height="48" viewBox="0 0 190 48" fill="none" xmlns="http://www.w3.org/2000/svg">
<path d="M71.7655 21.5355C71.7746 22.9115 71.5208 24.2749 71.0199 25.5412C70.0523 28.0051 68.2281 29.9658 65.9355 31.0058C64.757 31.5438 63.4883 31.8164 62.2079 31.8069C60.5772 31.8211 58.9707 31.3824 57.5441 30.5333V42.0778H52.6506V21.5355C52.6417 20.1593 52.8954 18.7959 53.396 17.5292C54.3636 15.0654 56.188 13.1048 58.4806 12.065C59.6617 11.536 60.9286 11.2637 62.2081 11.2637C63.4876 11.2637 64.7545 11.536 65.9355 12.065C68.2281 13.1048 70.0524 15.0654 71.0199 17.5292C71.5207 18.7958 71.7745 20.1593 71.7655 21.5355ZM66.872 21.5355C66.8708 20.2839 66.4369 19.0775 65.6545 18.1505C64.8721 17.2236 63.797 16.6422 62.6381 16.5194C61.4792 16.3966 60.3192 16.7411 59.3834 17.486C58.4476 18.2308 57.8028 19.3229 57.5742 20.5501C57.3456 21.7773 57.5496 23.052 58.1466 24.1266C58.7435 25.2012 59.6908 25.999 60.8044 26.3651C61.918 26.7311 63.1184 26.6393 64.1726 26.1074C65.2267 25.5755 66.0592 24.6415 66.5085 23.4869C66.7508 22.8694 66.8745 22.2056 66.872 21.5355V21.5355Z" fill="#05100B"/>
<path d="M79.9514 5.92285H75.0581V11.2639H79.9514V5.92285Z" fill="#05100B"/>
<path d="M79.9514 12.5786H75.0581V31.8064H79.9514V12.5786Z" fill="#05100B"/>
<path d="M97.196 31.8067C97.1987 31.0331 97.0892 30.2637 96.8712 29.5264C96.6589 28.8106 96.3497 28.1323 95.9536 27.5133C95.5602 26.8994 95.0834 26.3524 94.539 25.8904C93.9994 25.4304 93.4007 25.0567 92.7614 24.781C91.4545 25.3136 90.3282 26.259 89.5309 27.4928C88.7025 28.7529 88.2884 30.1908 88.2885 31.8067H83.3187C83.3187 29.7254 83.7329 27.8012 84.5611 26.0341C85.3728 24.2888 86.5428 22.7645 87.9827 21.5762C86.5302 20.3994 85.3469 18.8817 84.5231 17.1388C83.6686 15.3589 83.2416 13.4005 83.2422 11.2637H88.2504C88.2504 12.8802 88.6645 14.3182 89.4928 15.5779C90.2864 16.8083 91.3953 17.7646 92.6849 18.3306C93.9848 17.7829 95.0553 16.8722 95.8964 15.5983C96.7376 14.3245 97.1581 12.8796 97.1579 11.2637H102.128C102.128 13.3734 101.707 15.3114 100.866 17.0776C100.055 18.8056 98.8919 20.3151 97.4636 21.4941C98.9112 22.6933 100.093 24.2229 100.924 25.9725C101.777 27.7534 102.204 29.6982 102.204 31.8069L97.196 31.8067Z" fill="#05100B"/>
<path d="M147.018 31.8069H142.124V21.5355C142.124 20.206 141.633 18.9311 140.758 17.9911C139.884 17.051 138.697 16.5229 137.46 16.5229C136.223 16.5229 135.037 17.051 134.162 17.9911C133.288 18.9311 132.796 20.206 132.796 21.5355V31.8069H127.903V21.5355C127.894 20.1593 128.148 18.7959 128.648 17.5292C129.616 15.0654 131.44 13.1048 133.733 12.065C134.914 11.536 136.181 11.2637 137.461 11.2637C138.74 11.2637 140.007 11.536 141.188 12.065C143.481 13.1047 145.305 15.0653 146.272 17.5292C146.773 18.7958 147.027 20.1593 147.018 21.5355L147.018 31.8069Z" fill="#05100B"/>
<path d="M185.108 11.2622V21.5354C185.103 22.5262 184.827 23.4935 184.313 24.3161C183.8 25.1388 183.071 25.7801 182.22 26.1597C181.368 26.5392 180.431 26.6402 179.527 26.4498C178.622 26.2594 177.79 25.7863 177.134 25.0896C176.263 24.1437 175.776 22.8661 175.778 21.5354V11.2622H170.886V21.5354C170.876 22.9115 171.129 24.275 171.629 25.5417C172.597 28.0054 174.421 29.9658 176.713 31.0056C177.892 31.5441 179.161 31.8173 180.441 31.8083C182.073 31.8215 183.68 31.3826 185.108 30.534V31.8083C185.106 33.1379 184.618 34.4134 183.748 35.3592C182.868 36.2961 181.68 36.8217 180.441 36.8217C179.203 36.8217 178.014 36.2961 177.134 35.3592C177.016 35.235 176.906 35.1026 176.805 34.9629C176.533 34.5961 176.309 34.1903 176.14 33.7573C176.058 33.5513 175.991 33.3389 175.939 33.1219H170.962C171.03 33.7473 171.156 34.3639 171.336 34.9629C171.42 35.2509 171.518 35.5341 171.629 35.8113C172.595 38.2768 174.42 40.2388 176.713 41.2786C177.895 41.8063 179.162 42.078 180.441 42.078C181.72 42.078 182.987 41.8063 184.169 41.2786C186.462 40.2387 188.287 38.2768 189.253 35.8113C189.754 34.5459 190.008 33.1834 190 31.8083V11.2622H185.108Z" fill="#05100B"/>
<path d="M164.065 19.1018C164.045 19.1213 164.029 19.1389 164.016 19.1526L163.991 19.1799C163.983 19.1858 163.98 19.1916 163.976 19.1936C163.721 18.6651 163.377 18.1917 162.962 17.7973C162.678 17.5302 162.365 17.3008 162.03 17.1138C161.874 17.0241 161.713 16.9433 161.549 16.8717C161.014 16.6407 160.442 16.5227 159.866 16.524C159.243 16.5207 158.625 16.6536 158.051 16.9146C157.922 16.9732 157.796 17.0376 157.675 17.106C157.264 17.3351 156.889 17.6301 156.561 17.9809C156.229 18.3372 155.951 18.7471 155.738 19.1956C155.676 19.3205 155.62 19.4494 155.567 19.5842C155.327 20.2023 155.203 20.8653 155.203 21.535C155.203 22.2048 155.327 22.8678 155.567 23.4859C155.62 23.6206 155.676 23.7515 155.738 23.8764C156.166 24.7725 156.844 25.5028 157.676 25.966C157.798 26.0343 157.922 26.0968 158.051 26.1554C158.625 26.4164 159.243 26.5493 159.866 26.546C160.443 26.5483 161.014 26.4303 161.549 26.1983C161.713 26.1274 161.874 26.0472 162.03 25.9581C162.366 25.7712 162.679 25.5411 162.962 25.2727C163.374 24.8833 163.717 24.4176 163.976 23.8979C163.996 23.9194 164.151 24.0776 164.385 24.3178C164.39 24.3236 164.398 24.3295 164.405 24.3373L167.527 27.6942C167.202 28.1612 166.838 28.5953 166.44 28.9909C166.164 29.2661 165.874 29.5243 165.572 29.7643C164.918 30.2798 164.209 30.7099 163.46 31.0453C162.322 31.5547 161.099 31.8131 159.866 31.8049C158.586 31.8142 157.318 31.5417 156.139 31.0043C155.429 30.6788 154.758 30.2638 154.139 29.7678C153.77 29.4759 153.424 29.1541 153.101 28.8052C152.774 28.4556 152.473 28.0802 152.198 27.6823C151.739 27.0193 151.356 26.3002 151.055 25.5401C150.563 24.2709 150.31 22.9097 150.31 21.5349C150.31 20.16 150.563 18.7988 151.055 17.5296C151.356 16.7706 151.739 16.0528 152.198 15.3913C152.472 14.9916 152.774 14.615 153.101 14.2645C153.424 13.9172 153.77 13.5955 154.137 13.3019C154.756 12.8059 155.429 12.3909 156.139 12.0655C157.318 11.528 158.586 11.2555 159.866 11.2649C161.099 11.2567 162.322 11.515 163.46 12.0245C164.208 12.3613 164.917 12.792 165.572 13.3075C165.875 13.5463 166.165 13.804 166.44 14.0792C166.839 14.4759 167.203 14.9106 167.529 15.3778L164.065 19.1018Z" fill="#05100B"/>
<path d="M22.8957 0V12.596L7.61379 22.0775C7.03664 22.4356 6.39951 22.6681 5.73877 22.7616C5.07804 22.855 4.40664 22.8078 3.76291 22.6224C3.11918 22.437 2.51572 22.1172 1.98699 21.6812C1.45827 21.2452 1.01463 20.7015 0.681399 20.0813C0.348172 19.461 0.131886 18.7763 0.0448898 18.0661C-0.0421065 17.356 0.0018904 16.6345 0.174369 15.9426C0.346847 15.2508 0.644428 14.6023 1.05012 14.034C1.45582 13.4658 1.96168 12.989 2.53883 12.6309L22.8957 0Z" fill="#05100B"/>
<path d="M45.7899 7.82983C45.7908 8.7882 45.5568 9.72992 45.1115 10.5602C44.6662 11.3906 44.0253 12.0802 43.2532 12.5598L38.3271 15.6173C38.3094 15.6283 38.2902 15.6394 38.2725 15.6505L22.895 25.1904V12.5959L38.177 3.11279C38.1828 3.10964 38.1872 3.10648 38.1932 3.10333C38.9644 2.62848 39.8382 2.37968 40.7271 2.38185C41.6159 2.38402 42.4886 2.63707 43.2579 3.11567C44.0271 3.59428 44.6659 4.28165 45.1103 5.10897C45.5546 5.9363 45.789 6.87456 45.7899 7.82983V7.82983Z" fill="#05100B"/>
<path d="M22.8949 25.1904V37.7864L7.61297 47.2695C6.44717 47.9928 5.06178 48.1887 3.76157 47.8142C2.46136 47.4397 1.35283 46.5254 0.679848 45.2725C0.00686698 44.0196 -0.17544 42.5307 0.173033 41.1333C0.521506 39.7359 1.37221 38.5446 2.53801 37.8213L7.55684 34.7067L7.61282 34.6735L22.8949 25.1904Z" fill="#05100B"/>
<path d="M116.38 26.339C116.295 26.3664 116.209 26.3917 116.122 26.4113C116.053 26.4308 115.984 26.4464 115.913 26.4601C115.908 26.4621 115.902 26.4621 115.897 26.464C115.831 26.4757 115.766 26.4875 115.701 26.4972C115.636 26.5069 115.57 26.5168 115.503 26.5226C115.487 26.5249 115.472 26.5262 115.457 26.5265C115.409 26.5327 115.36 26.5359 115.312 26.5363C115.227 26.5441 115.139 26.546 115.052 26.546C114.99 26.546 114.93 26.5441 114.868 26.5421C114.819 26.5402 114.77 26.5382 114.721 26.5324C114.713 26.5326 114.704 26.5319 114.696 26.5304C114.643 26.5265 114.592 26.5226 114.539 26.5168C114.429 26.5031 114.318 26.4855 114.209 26.464C114.152 26.4523 114.1 26.4406 114.045 26.4289C113.937 26.4045 113.832 26.3719 113.726 26.3387L123.196 16.1589C123.043 15.8934 122.88 15.6336 122.705 15.3856C122.344 14.8652 121.937 14.3832 121.49 13.9464C121.466 13.921 121.441 13.8976 121.417 13.8761C120.509 12.9996 119.452 12.3216 118.303 11.88C118.158 11.8223 118.013 11.768 117.867 11.7202C117.81 11.6987 117.754 11.6811 117.696 11.6635C117.172 11.5017 116.635 11.3887 116.093 11.3257C115.97 11.3101 115.846 11.2983 115.719 11.2905C115.632 11.2827 115.544 11.2788 115.457 11.2749C115.404 11.2711 115.352 11.2691 115.299 11.269C115.217 11.2671 115.134 11.2651 115.052 11.2651C114.961 11.2651 114.872 11.2671 114.783 11.269C114.745 11.269 114.707 11.271 114.668 11.273C112.269 11.3756 109.993 12.4457 108.295 14.2704C106.596 16.095 105.6 18.5402 105.503 21.1191C105.502 21.1601 105.5 21.2031 105.5 21.2461C105.498 21.3417 105.496 21.4394 105.496 21.5351C105.496 21.6328 105.498 21.7284 105.5 21.8241C105.5 21.8651 105.502 21.9061 105.503 21.9471C105.567 23.7035 106.051 25.4126 106.908 26.9094C107.696 28.2837 108.773 29.4407 110.051 30.2878C111.444 31.2092 113.034 31.7292 114.669 31.7973C114.707 31.7993 114.745 31.8012 114.783 31.8012C114.872 31.8032 114.961 31.8051 115.052 31.8051C115.134 31.8051 115.217 31.8032 115.299 31.8012C115.352 31.8012 115.405 31.7993 115.457 31.7953C115.545 31.7914 115.632 31.7875 115.719 31.7797C115.846 31.7719 115.97 31.7582 116.093 31.7446C116.636 31.6816 117.172 31.5685 117.696 31.4067C117.783 31.3794 117.87 31.3521 117.956 31.3208C117.974 31.3162 117.991 31.3103 118.008 31.3032C118.131 31.2602 118.251 31.2132 118.371 31.1639C119.511 30.7146 120.56 30.0325 121.459 29.1552C121.516 29.1005 121.572 29.0458 121.626 28.9911C122.046 28.5619 122.429 28.0933 122.771 27.591C122.566 27.38 119.292 24.029 119.164 23.9001C118.873 24.484 118.477 25.0001 117.999 25.4187C117.521 25.8373 116.971 26.1501 116.38 26.339V26.339ZM110.417 22.0858C110.411 22.0272 110.406 21.9686 110.402 21.91V21.8983C110.398 21.8436 110.395 21.7869 110.393 21.7323C110.391 21.666 110.389 21.6015 110.389 21.5351C110.389 21.4687 110.391 21.4042 110.393 21.3378C110.395 21.2851 110.397 21.2324 110.402 21.1797C110.402 21.1705 110.402 21.1613 110.404 21.1523C110.408 21.0957 110.411 21.041 110.417 20.9844C110.427 20.8645 110.444 20.7452 110.466 20.627L110.498 20.4513C110.521 20.3328 110.552 20.2165 110.584 20.1005C110.607 20.0167 110.633 19.9345 110.661 19.8524C110.671 19.8207 110.682 19.7891 110.693 19.7575C110.948 19.0364 111.354 18.3881 111.88 17.8632C112.406 17.3383 113.037 16.9508 113.725 16.7311C113.831 16.6979 113.936 16.6686 114.045 16.6413C114.1 16.6296 114.152 16.6179 114.209 16.6061C114.318 16.5847 114.429 16.5671 114.539 16.5534C114.592 16.5475 114.643 16.5436 114.696 16.5397C114.704 16.5382 114.713 16.5376 114.721 16.5378C114.77 16.5319 114.819 16.53 114.868 16.528C114.93 16.526 114.99 16.5241 115.052 16.5241C115.139 16.5241 115.226 16.526 115.312 16.5339C115.36 16.5343 115.409 16.5375 115.457 16.5436C115.472 16.544 115.487 16.5453 115.503 16.5475C115.57 16.5534 115.635 16.5632 115.701 16.5729C115.766 16.5826 115.831 16.5944 115.897 16.6061C115.902 16.6081 115.908 16.6081 115.913 16.6101C115.984 16.6237 116.053 16.6393 116.122 16.6589C116.209 16.6784 116.295 16.7038 116.38 16.7311L116.377 16.735L110.582 22.9606C110.535 22.7898 110.496 22.6164 110.466 22.4412C110.444 22.324 110.428 22.2049 110.417 22.0858V22.0858Z" fill="#05100B"/>
</svg>
